<?xml version="1.0" standalone="no"?><!DOCTYPE svg PUBLIC "-//W3C//DTD SVG 1.1//EN" "http://www.w3.org/Graphics/SVG/1.1/DTD/svg11.dtd"><svg t="1622040401121" class="icon" viewBox="0 0 1024 1024" version="1.1" xmlns="http://www.w3.org/2000/svg" p-id="2954" xmlns:xlink="http://www.w3.org/1999/xlink" width="200" height="200"><defs><style type="text/css"></style></defs><path d="M830.7 309.6H197.9c-10.6 0-19.5-9-19.5-19.6V160c0-10.6 8.9-19.5 19.5-19.5h632.8c10.6 0 19.5 8.9 19.5 19.5v130c0 10.6-8.9 19.6-19.5 19.6z" fill="#54A8B9" p-id="2955"></path><path d="M870.5 0H158.1C96.8 0 46.7 50.1 46.7 111.4v801.2c0 61.3 50.1 111.4 111.4 111.4h712.4c61.3 0 111.4-50.1 111.4-111.4V111.4C981.9 50.1 931.8 0 870.5 0zM274.3 898.7c-51.2 0-92.8-41.6-92.8-92.8 0-51.2 41.5-92.8 92.8-92.8 51.2 0 92.8 41.6 92.8 92.8 0 51.2-41.5 92.8-92.8 92.8z m0-256.5c-51.2 0-92.8-41.5-92.8-92.7 0-51.3 41.5-92.8 92.8-92.8 51.2 0 92.8 41.5 92.8 92.8 0 51.2-41.5 92.7-92.8 92.7z m240 256.5c-51.3 0-92.8-41.6-92.8-92.8s41.5-92.8 92.8-92.8c51.2 0 92.8 41.5 92.8 92.8s-41.6 92.8-92.8 92.8z m-92.7-349.2c0-51.3 41.5-92.8 92.8-92.8 51.2 0 92.7 41.5 92.7 92.8 0 51.2-41.5 92.7-92.7 92.7-51.3 0-92.8-41.5-92.8-92.7z m332.7 349.2c-51.3 0-92.8-41.5-92.8-92.8 0-51.2 41.5-92.8 92.8-92.8 51.2 0 92.8 41.5 92.8 92.8-0.1 51.3-41.6 92.8-92.8 92.8z m-92.8-349.2c0-51.3 41.5-92.8 92.8-92.8 51.2 0 92.7 41.5 92.7 92.8 0 51.2-41.5 92.7-92.7 92.7s-92.8-41.5-92.8-92.7zM886.4 290c0 30.6-25.1 55.7-55.7 55.7H197.9c-30.6 0-55.7-25.1-55.7-55.7V160c0-30.6 25.1-55.7 55.7-55.7h632.8c30.6 0 55.7 25.1 55.7 55.7v130z" fill="#626262" p-id="2956"></path><path d="M324.8 533.8H290V499c0-8.7-7-15.7-15.7-15.7-8.8 0-15.8 7-15.8 15.7v34.8h-34.7c-8.7 0-15.8 7-15.8 15.7 0 8.6 7.1 15.7 15.8 15.7h34.7v34.7c0 8.7 7 15.7 15.8 15.7 8.7 0 15.7-7 15.7-15.7v-34.7h34.8c8.7 0 15.7-7.1 15.7-15.7 0-8.7-7-15.7-15.7-15.7zM463.8 565.2h100.9c8.7 0 15.8-7.1 15.8-15.7 0-8.7-7.1-15.7-15.8-15.7H463.8c-8.7 0-15.8 7-15.8 15.7 0.1 8.6 7.1 15.7 15.8 15.7zM321.2 759.1c-6.2-6.2-16.1-6.2-22.3 0l-24.6 24.6-24.5-24.6c-6.1-6.2-16.1-6.2-22.2 0-6.2 6.1-6.2 16.1 0 22.2l24.6 24.6-24.6 24.6c-6.2 6.1-6.2 16.1 0 22.2 3 3.1 7.1 4.6 11.1 4.6s8-1.6 11.1-4.6l24.5-24.6 24.6 24.6c3.1 3.1 7.1 4.6 11.1 4.6s8.1-1.6 11.2-4.6c6.1-6.1 6.1-16.1 0-22.2l-24.6-24.6 24.6-24.6c6.1-6.1 6.1-16.1 0-22.2zM580.5 805.8c0 8.7-7.1 15.8-15.7 15.8h-101c-8.7 0-15.7-7.1-15.7-15.8 0-8.7 7.1-15.7 15.7-15.7h101c8.6 0 15.7 7.1 15.7 15.7z m-65.2 27.7c-10.7 0-19.4 8.7-19.4 19.4 0 10.8 8.7 19.5 19.4 19.5 10.8 0 19.4-8.7 19.4-19.5 0-10.7-8.7-19.4-19.4-19.4z m0-55.2c10.8 0 19.4-8.7 19.4-19.4 0-10.8-8.7-19.5-19.4-19.4-10.7 0-19.4 8.7-19.4 19.4s8.7 19.4 19.4 19.4zM807.5 832.5c0 8.7-5.6 15.8-12.6 15.8h-81.2c-7 0-12.7-7.1-12.7-15.8s5.7-15.7 12.7-15.7h81.2c7 0 12.6 7 12.6 15.7z m-12.6-66.8h-81.2c-7 0-12.7 7-12.7 15.7s5.7 15.7 12.7 15.7h81.2c7 0 12.6-7.1 12.6-15.7s-5.6-15.7-12.6-15.7zM755.5 608.2c16 0 30.6-6.8 41-17.3 5.8-6 5.7-15.6-0.2-21.4-6-5.8-15.6-5.7-21.4 0.2-5.2 5.1-11.8 8.2-19.3 8.2-14.9 0-27.5-12.4-27.5-28.4 0.1-16 12.6-28.4 27.5-28.4 7.6 0 14.2 3.1 19.2 8.3 5.9 5.9 15.5 6.1 21.5 0.2 5.9-5.8 6.1-15.4 0.3-21.4-10.4-10.7-25-17.3-41-17.3-32.2 0-57.8 26.5-57.8 58.7-0.1 32.1 25.5 58.5 57.7 58.6z" fill="#F79633" p-id="2957"></path></svg>