<?xml version="1.0" standalone="no"?><!DOCTYPE svg PUBLIC "-//W3C//DTD SVG 1.1//EN" "http://www.w3.org/Graphics/SVG/1.1/DTD/svg11.dtd"><svg t="1625024897082" class="icon" viewBox="0 0 1024 1024" version="1.1" xmlns="http://www.w3.org/2000/svg" p-id="2896" xmlns:xlink="http://www.w3.org/1999/xlink" width="200" height="200"><defs><style type="text/css"></style></defs><path d="M898.94 203.77h-524.4l-46.45-75.35c-8.07-13.09-22.07-20.91-37.46-20.91H113.72c-24.26 0-44 19.74-44 44V770.5c0 24.26 19.74 44 44 44h785.22c24.26 0 44-19.74 44-44V247.77c0-24.27-19.73-44-44-44zM275.01 179.5l46.45 75.35c8.07 13.09 22.07 20.91 37.45 20.91h512.03v60.69H141.72V179.5h133.29z m-133.29 563V408.46h729.22V742.5H141.72z" fill="#31D0C8" p-id="2897"></path></svg>