<?xml version="1.0" standalone="no"?><!DOCTYPE svg PUBLIC "-//W3C//DTD SVG 1.1//EN" "http://www.w3.org/Graphics/SVG/1.1/DTD/svg11.dtd"><svg t="1618976904436" class="icon" viewBox="0 0 1024 1024" version="1.1" xmlns="http://www.w3.org/2000/svg" p-id="9115" xmlns:xlink="http://www.w3.org/1999/xlink" width="200" height="200"><defs><style type="text/css"></style></defs><path d="M92.16 81.92a81.92 81.92 0 0 1 81.92-81.92h675.84a81.92 81.92 0 0 1 81.92 81.92v860.16a81.92 81.92 0 0 1-81.92 81.92H174.08a81.92 81.92 0 0 1-81.92-81.92V81.92z" fill="#36CFC9" p-id="9116"></path><path d="M92.16 81.92a81.92 81.92 0 0 1 81.92-81.92h102.4v1024H174.08a81.92 81.92 0 0 1-81.92-81.92V81.92z" fill="#08979C" p-id="9117"></path><path d="M583.68 0h235.52v327.68l-117.76-54.60992L583.68 327.68z" fill="#B5F5EC" p-id="9118"></path></svg>