<?xml version="1.0" standalone="no"?><!DOCTYPE svg PUBLIC "-//W3C//DTD SVG 1.1//EN" "http://www.w3.org/Graphics/SVG/1.1/DTD/svg11.dtd"><svg t="1625026671133" class="icon" viewBox="0 0 1024 1024" version="1.1" xmlns="http://www.w3.org/2000/svg" p-id="2136" xmlns:xlink="http://www.w3.org/1999/xlink" width="200" height="200"><defs><style type="text/css"></style></defs><path d="M514.9696 928.4096c-230.4512 0-417.9456-187.4944-417.9456-417.9456s187.4944-417.9456 417.9456-417.9456 417.9456 187.4944 417.9456 417.9456-187.4944 417.9456-417.9456 417.9456z m0-774.4512c-196.5568 0-356.5056 159.9488-356.5056 356.5056s159.9488 356.5056 356.5056 356.5056 356.5056-159.9488 356.5056-356.5056-159.9488-356.5056-356.5056-356.5056z" fill="#6FB1F9" p-id="2137"></path><path d="M676.096 594.3296H477.7984c-27.904 0-50.6368-22.7328-50.6368-50.6368V378.1632c0-16.9472 13.7728-30.72 30.72-30.72s30.72 13.7728 30.72 30.72v154.7264h187.4432c16.9472 0 30.72 13.7728 30.72 30.72s-13.7216 30.72-30.6688 30.72z" fill="#6FB1F9" p-id="2138"></path></svg>